<svg id="Layer_1" data-name="Layer 1" xmlns="http://www.w3.org/2000/svg" viewBox="0 0 76.85 54.34"><defs><style>.cls-1{fill:#f58423;}.cls-2{fill:#0777be;}</style></defs><path class="cls-1" d="M65.15,33.33c-1.13-.31-2.27-.64-3.41-.93a86.94,86.94,0,0,0-9.33-1.85c-2.65-.38-5.32-.65-8-.8-3.08-.18-6.17-.23-9.25-.12q-3.62.12-7.2.49a87.83,87.83,0,0,0-15.9,3.11c-.49.14-1,.3-1.56.48a10.51,10.51,0,0,1,1.38-.6,72.27,72.27,0,0,1,14.13-4,78.42,78.42,0,0,1,8.51-1A69.24,69.24,0,0,1,42.68,28,63.44,63.44,0,0,1,58.2,30.64a50.4,50.4,0,0,1,6.92,2.66l0,0"/><path class="cls-2" d="M11.17,26.58l.57,0c.54-.05.75-.28.78-.83v-.27a.59.59,0,0,0-.47-.61,3.78,3.78,0,0,0-1.86,0,.67.67,0,0,0-.53.62,1.48,1.48,0,0,0,0,.59.6.6,0,0,0,.46.45,4.49,4.49,0,0,0,1,.1m1.42.43a.7.7,0,0,0-.2.33A1.81,1.81,0,0,1,11,28.42a7,7,0,0,1-2.45,0,2,2,0,0,1-1.72-1.71,4.61,4.61,0,0,1,0-2.09,1.8,1.8,0,0,1,1-1.25,3.08,3.08,0,0,1,1-.31,7.49,7.49,0,0,1,2.41,0,1.45,1.45,0,0,1,1.16.8.17.17,0,0,0,.14.11v-.62c0-.39,0-.78,0-1.17a.89.89,0,0,0-.86-1,2.72,2.72,0,0,0-.9,0,.66.66,0,0,0-.68.63c-.06.31-.06.31-.37.31H7.36c-.27,0-.27,0-.28-.27A4.12,4.12,0,0,1,7.17,21a1.74,1.74,0,0,1,1-1.23,3.69,3.69,0,0,1,1.46-.36,15.92,15.92,0,0,1,3.65.12,2.92,2.92,0,0,1,1.06.37,2.38,2.38,0,0,1,1.07,1.82c0,.41.07.83.07,1.24,0,1.68,0,3.35,0,5a1.62,1.62,0,0,0,0,.22c0,.14-.06.21-.2.21-.85,0-1.69,0-2.53,0-.19,0-.2-.11-.19-.25A8.65,8.65,0,0,0,12.59,27"/><path class="cls-2" d="M55.76,26.58a3.64,3.64,0,0,0,.54,0,.74.74,0,0,0,.79-.82,1.93,1.93,0,0,0,0-.34.58.58,0,0,0-.42-.53,3.57,3.57,0,0,0-2,0,.62.62,0,0,0-.45.51,1.53,1.53,0,0,0,0,.64.64.64,0,0,0,.5.5,5.16,5.16,0,0,0,1,.09m1.33-2.64c0-.61,0-1.23,0-1.84a.85.85,0,0,0-.8-.89,2.91,2.91,0,0,0-1,0,.64.64,0,0,0-.61.61c-.07.33-.07.33-.4.33H52c-.29,0-.29,0-.29-.3A2,2,0,0,1,53.6,19.5a12.93,12.93,0,0,1,4.43.07A2.3,2.3,0,0,1,60,21.75,9.82,9.82,0,0,1,60,22.84c0,1.72,0,3.45,0,5.17a.75.75,0,0,0,0,.15c0,.2-.07.26-.26.26-.53,0-1.06,0-1.59,0h-.71c-.37,0-.37,0-.35-.39s0-.65.08-1c-.14,0-.15.15-.19.23a1.9,1.9,0,0,1-1.65,1.2A7.19,7.19,0,0,1,53,28.37a1.94,1.94,0,0,1-1.57-1.55,4.76,4.76,0,0,1,0-2.25,1.82,1.82,0,0,1,1-1.21A4,4,0,0,1,54,23a7.4,7.4,0,0,1,1.88.1,1.37,1.37,0,0,1,1.09.77A.94.94,0,0,0,57,24h.06"/><path class="cls-2" d="M64.75,21c.1,0,.11-.13.13-.21a2.13,2.13,0,0,1,1.89-1.4,4.91,4.91,0,0,1,1.91.13,2.14,2.14,0,0,1,1.72,2c0,.28,0,.56,0,.83v5.82c0,.14-.05.2-.2.2q-1.24,0-2.49,0c-.16,0-.23-.06-.22-.22v-5a5.67,5.67,0,0,0-.07-.82.76.76,0,0,0-.61-.68,2,2,0,0,0-1.3.1,1.14,1.14,0,0,0-.7.92,2.59,2.59,0,0,0,0,.56v4.65a1.62,1.62,0,0,0,0,.22c0,.2-.07.26-.26.26-.55,0-1.11,0-1.66,0H62.2c-.32,0-.32,0-.32-.35V19.65c0-.14.06-.19.2-.19h2.53c.16,0,.19.07.18.21,0,.38-.05.75-.07,1.13,0,.07,0,.15,0,.21"/><path class="cls-2" d="M18.4,25.61h1.17c.29,0,.29,0,.32.27.06.45.16.59.59.65a5.24,5.24,0,0,0,1.81,0c.39-.09.51-.26.51-.67s-.12-.67-.49-.79a2.56,2.56,0,0,0-.67-.08c-.78,0-1.56,0-2.34-.13a5.42,5.42,0,0,1-.7-.14A2,2,0,0,1,17,22.93a4.79,4.79,0,0,1,0-1.77,2,2,0,0,1,1.41-1.53A6.08,6.08,0,0,1,20,19.4a18.52,18.52,0,0,1,3,.05,4.32,4.32,0,0,1,.88.2,2,2,0,0,1,1.38,2.19c0,.13-.06.18-.18.18H22.62a.2.2,0,0,1-.21-.18.73.73,0,0,0-.78-.57,6.12,6.12,0,0,0-1.21,0,.7.7,0,0,0-.62,1,.58.58,0,0,0,.55.39l1.32.08c.6,0,1.2.06,1.8.14A4.35,4.35,0,0,1,24,23a2,2,0,0,1,1.61,1.9,4.57,4.57,0,0,1,0,1.28,2.54,2.54,0,0,1-2.27,2.15,14.41,14.41,0,0,1-4.25,0l-.37-.08a2.15,2.15,0,0,1-1.75-2.09c-.05-.72-.1-.58.53-.59h.95"/><path class="cls-2" d="M31.11,22.82h1.24c.09,0,.18,0,.2-.12a1,1,0,0,0-.85-1.25,4.24,4.24,0,0,0-1.28,0,.81.81,0,0,0-.72.71,1.88,1.88,0,0,0,0,.34c0,.27,0,.28.26.28h1.17m1.41,1.61H30c-.31,0-.31,0-.31.32a3.92,3.92,0,0,0,.08.9.92.92,0,0,0,.72.74,3,3,0,0,0,1.46,0,.71.71,0,0,0,.59-.65c0-.32.06-.32.37-.32h2.26c.25,0,.27,0,.26.26a3.52,3.52,0,0,1-.33,1.49.47.47,0,0,1-.44.29q-3,.15-6.05.58a.62.62,0,0,1-.42-.1A2.66,2.66,0,0,1,27,26.21a9.5,9.5,0,0,1-.17-2.06A11.53,11.53,0,0,1,27,21.59a2.43,2.43,0,0,1,1.56-1.85,4.4,4.4,0,0,1,1.39-.32,12.13,12.13,0,0,1,3,.09,2.66,2.66,0,0,1,2.32,2.22,11.17,11.17,0,0,1,.15,2.52c0,.12-.05.19-.18.18H32.52Z"/><path class="cls-2" d="M42.85,25.61H44.1c.18,0,.23.06.25.24,0,.48.15.63.59.69a5.19,5.19,0,0,0,1.8,0,.59.59,0,0,0,.53-.67.68.68,0,0,0-.5-.78A2.17,2.17,0,0,0,46.1,25c-.78,0-1.56,0-2.34-.13a4.47,4.47,0,0,1-1-.25,1.89,1.89,0,0,1-1.22-1.38,4.45,4.45,0,0,1,0-2A2,2,0,0,1,43,19.6a6.23,6.23,0,0,1,1.42-.2,18,18,0,0,1,2.94.05,4.17,4.17,0,0,1,1,.22,2.07,2.07,0,0,1,1.32,2.17c0,.12-.06.18-.18.17H47.09a.19.19,0,0,1-.21-.17c-.1-.43-.42-.56-.82-.58a6.53,6.53,0,0,0-1.17,0,.71.71,0,0,0-.62,1.06.59.59,0,0,0,.57.36l1.28.07c.61,0,1.23.07,1.84.15a1.25,1.25,0,0,1,.19,0,2.1,2.1,0,0,1,1.93,2.22,4,4,0,0,1-.17,1.46,2.33,2.33,0,0,1-1,1.26.64.64,0,0,1-.46.11c-.92-.13-1.85-.24-2.78-.33-1.21-.12-2.43-.2-3.65-.26a.49.49,0,0,1-.48-.33,3.57,3.57,0,0,1-.22-1.33c0-.15.11-.14.21-.14h1.28"/><path class="cls-1" d="M45.73,38h.64a.76.76,0,0,0,.25-.06.7.7,0,0,0,.52-.78c0-.41-.11-.57-.5-.68a2,2,0,0,0-.48-.09,3.56,3.56,0,0,0-1.38.08.68.68,0,0,0-.51.81.67.67,0,0,0,.59.67,3.64,3.64,0,0,0,.87.05m1.5.31c-.16,0-.18.13-.21.21a1.76,1.76,0,0,1-1.43,1,8.26,8.26,0,0,1-2.48-.05,1.79,1.79,0,0,1-1.63-1.75,3.4,3.4,0,0,1,.06-1.27,1.51,1.51,0,0,1,.85-1.09,3.54,3.54,0,0,1,1-.32,8,8,0,0,1,2.59,0,1.25,1.25,0,0,1,1,.69.56.56,0,0,0,0,.08c.13,0,.1-.13.1-.19V34.29a.79.79,0,0,0-.63-.83,2.63,2.63,0,0,0-1.08-.08c-.46.06-.79.26-.79.8H42.35c-.56,0-.56,0-.52-.54a1.51,1.51,0,0,1,1-1.4,4.94,4.94,0,0,1,1.74-.3,20.54,20.54,0,0,1,2.6,0c.3,0,.59.07.89.13a2,2,0,0,1,1.82,2.07c0,.15,0,.3,0,.45v4.53c0,.35,0,.35-.35.35H47.43c-.26,0-.26,0-.24-.27s0-.59,0-.91"/><path class="cls-1" d="M21.11,39.56a10.17,10.17,0,0,1-2.4-.16,3,3,0,0,1-.71-.24,1.83,1.83,0,0,1-1-1.82c0-.09.05-.13.14-.13h2.46c.16,0,.24,0,.25.22a.6.6,0,0,0,.57.56,5.59,5.59,0,0,0,1.87,0,.54.54,0,0,0,.5-.57.6.6,0,0,0-.44-.7,2,2,0,0,0-.59-.09c-.85,0-1.71,0-2.56-.13a4.54,4.54,0,0,1-1-.24,1.65,1.65,0,0,1-1.08-1.34,4,4,0,0,1,0-1.38,1.62,1.62,0,0,1,1.12-1.27,3.54,3.54,0,0,1,.91-.21,17.77,17.77,0,0,1,4.25,0,2.48,2.48,0,0,1,.92.33,1.63,1.63,0,0,1,.8,1.49c0,.15-.05.22-.22.22H22.69a.25.25,0,0,1-.28-.19.67.67,0,0,0-.58-.42,5.38,5.38,0,0,0-1.5,0,.56.56,0,0,0-.57.62.55.55,0,0,0,.53.61,10.88,10.88,0,0,0,1.13.07,21.89,21.89,0,0,1,2.44.2l.19,0a1.74,1.74,0,0,1,1.46,1.87,2.75,2.75,0,0,1,0,.64,2.09,2.09,0,0,1-1.42,1.7,5.44,5.44,0,0,1-1.74.3c-.4,0-.8,0-1.21,0"/><path class="cls-1" d="M55.89,39.59a11.94,11.94,0,0,1-2.38-.19,2.46,2.46,0,0,1-.58-.19,1.78,1.78,0,0,1-1.11-1.76c0-.18,0-.25.23-.25h2.38c.18,0,.24.07.26.24a.55.55,0,0,0,.53.54,5.86,5.86,0,0,0,1.87,0,.55.55,0,0,0,.52-.59.61.61,0,0,0-.48-.71,1.68,1.68,0,0,0-.44-.07c-.68,0-1.36,0-2-.08a5.92,5.92,0,0,1-1.45-.22,1.73,1.73,0,0,1-1.32-1.76A3.53,3.53,0,0,1,52,33.41a1.56,1.56,0,0,1,1-1.14A3.63,3.63,0,0,1,54,32a17.77,17.77,0,0,1,4.25,0,2.62,2.62,0,0,1,.85.3,1.64,1.64,0,0,1,.85,1.57c0,.14-.07.17-.19.17H57.51c-.13,0-.23,0-.29-.17a.69.69,0,0,0-.64-.44,5.7,5.7,0,0,0-1.43,0c-.38.06-.59.26-.6.6s.19.58.6.64c.63.09,1.28.07,1.92.12a12.83,12.83,0,0,1,1.64.16,3.89,3.89,0,0,1,.58.18,1.6,1.6,0,0,1,1,1.28,3,3,0,0,1,0,1.2,2,2,0,0,1-.9,1.33,3.43,3.43,0,0,1-1.38.47,18,18,0,0,1-2.09.12"/><path class="cls-1" d="M40.54,32c-.18.66-.36,1.29-.53,1.91-.5,1.77-1,3.53-1.51,5.3-.08.3-.08.3-.4.3H34.24c-.3,0-.3,0-.39-.27-.74-2.34-1.49-4.67-2.23-7,0-.06,0-.11-.05-.16s.14-.07.21-.07c.81,0,1.61,0,2.42,0,.28,0,.29,0,.37.3.48,1.79,1,3.58,1.45,5.38,0,.1,0,.2.11.27s.1-.14.12-.22c.4-1.78.84-3.54,1.28-5.31a2,2,0,0,0,.06-.26.18.18,0,0,1,.2-.17h2.75"/><path class="cls-2" d="M36.92,21.46V15.91c0-.27,0-.28.27-.28.79,0,1.59,0,2.38,0,.27,0,.28,0,.28.27V27c0,.29,0,.29-.3.29l-2.3,0c-.32,0-.33,0-.33-.34V21.46"/><path class="cls-1" d="M30.26,36.89v2.34c0,.27,0,.28-.27.28H27.73c-.2,0-.27-.05-.27-.26,0-1.59,0-3.17,0-4.76,0-.19.05-.26.26-.26H30c.28,0,.28,0,.28.3v2.34"/><path class="cls-1" d="M28.84,33.72H27.71c-.18,0-.25,0-.25-.23,0-.43,0-.86,0-1.29,0-.19.08-.22.25-.22H30c.18,0,.25,0,.25.23,0,.43,0,.85,0,1.28,0,.19-.08.24-.25.23H28.84"/></svg>